<svg id="Access-EU" xmlns="http://www.w3.org/2000/svg" xmlns:xlink="http://www.w3.org/1999/xlink" width="65" height="65" viewBox="0 0 65 65">
  <defs>
    <clipPath id="clip-path">
      <rect id="Rectangle_4454" data-name="Rectangle 4454" width="65" height="65" fill="none"/>
    </clipPath>
  </defs>
  <g id="Group_64162" data-name="Group 64162" clip-path="url(#clip-path)">
    <path id="Path_92978" data-name="Path 92978" d="M34.446,62.471l-.72,2.3a.325.325,0,0,1-.614.019l-.862-2.252a.324.324,0,0,0-.307-.208l-2.411.026a.325.325,0,0,1-.208-.578L31.2,60.263a.325.325,0,0,0,.1-.357l-.77-2.284a.325.325,0,0,1,.485-.376l2.022,1.315a.326.326,0,0,0,.371-.011l1.935-1.438a.325.325,0,0,1,.507.345l-.626,2.328a.326.326,0,0,0,.125.35l1.966,1.4a.325.325,0,0,1-.171.589l-2.408.124a.326.326,0,0,0-.294.228M19.568,59.378l2.148,1.1a.325.325,0,0,0,.443-.425l-1-2.192a.325.325,0,0,1,.066-.365l1.706-1.7a.325.325,0,0,0-.267-.552l-2.4.278a.325.325,0,0,1-.327-.175l-1.093-2.149a.325.325,0,0,0-.608.083l-.476,2.364a.323.323,0,0,1-.267.256l-2.382.376a.325.325,0,0,0-.109.6l2.1,1.183a.324.324,0,0,1,.162.334l-.38,2.381a.325.325,0,0,0,.541.29L19.2,59.428a.325.325,0,0,1,.368-.05M7.861,49.311l1.311,2.024a.325.325,0,0,0,.6-.147l.226-2.4a.324.324,0,0,1,.239-.283l2.33-.623a.325.325,0,0,0,.045-.612L10.4,46.314A.326.326,0,0,1,10.2,46l.129-2.407a.326.326,0,0,0-.569-.233L8.166,45.167a.324.324,0,0,1-.36.089l-2.25-.866a.325.325,0,0,0-.4.469l1.228,2.075a.324.324,0,0,1-.028.37L4.842,49.176a.325.325,0,0,0,.323.522l2.353-.526a.325.325,0,0,1,.344.14M2.756,34.741l.125,2.408a.324.324,0,0,0,.589.171l1.4-1.966a.324.324,0,0,1,.349-.125l2.329.626a.325.325,0,0,0,.346-.507L6.451,33.412a.326.326,0,0,1-.012-.372l1.315-2.021a.325.325,0,0,0-.376-.485l-2.285.77a.325.325,0,0,1-.357-.1L3.22,29.325a.325.325,0,0,0-.578.208l.026,2.411a.324.324,0,0,1-.208.307l-2.252.862a.325.325,0,0,0,.02.614l2.3.72a.326.326,0,0,1,.227.294M5.621,19.568l-1.1,2.148a.325.325,0,0,0,.425.443l2.192-1a.326.326,0,0,1,.365.066l1.7,1.706a.325.325,0,0,0,.552-.267l-.278-2.4a.323.323,0,0,1,.175-.327l2.149-1.093a.325.325,0,0,0-.084-.608L9.363,17.76a.325.325,0,0,1-.257-.267L8.731,15.11a.325.325,0,0,0-.6-.109L6.944,17.1a.326.326,0,0,1-.335.162l-2.381-.38a.325.325,0,0,0-.29.541L5.571,19.2a.325.325,0,0,1,.05.368M15.688,7.861,13.665,9.173a.325.325,0,0,0,.147.6l2.4.226a.324.324,0,0,1,.283.24l.623,2.329a.325.325,0,0,0,.612.045l.957-2.213A.325.325,0,0,1,19,10.2l2.407.129a.325.325,0,0,0,.232-.568L19.832,8.167a.326.326,0,0,1-.088-.361l.866-2.25a.325.325,0,0,0-.469-.4L18.066,6.387a.325.325,0,0,1-.37-.027L15.824,4.842a.324.324,0,0,0-.522.323l.526,2.353a.325.325,0,0,1-.14.344M30.259,2.756l-2.408.125a.325.325,0,0,0-.171.589l1.966,1.4a.325.325,0,0,1,.125.349l-.626,2.329a.325.325,0,0,0,.507.345l1.936-1.438a.324.324,0,0,1,.371-.012l2.021,1.315a.325.325,0,0,0,.485-.376L33.7,5.093a.325.325,0,0,1,.1-.356L35.675,3.22a.325.325,0,0,0-.208-.577l-2.411.026a.326.326,0,0,1-.307-.209L31.886.208a.325.325,0,0,0-.613.02l-.72,2.3a.326.326,0,0,1-.294.227M45.431,5.621l-2.148-1.1a.324.324,0,0,0-.443.425l1,2.192a.326.326,0,0,1-.066.365l-1.706,1.7a.325.325,0,0,0,.267.552l2.4-.278a.325.325,0,0,1,.327.175l1.093,2.149a.325.325,0,0,0,.608-.083l.476-2.364a.323.323,0,0,1,.267-.256l2.382-.376a.325.325,0,0,0,.109-.6L47.9,6.944a.324.324,0,0,1-.162-.334l.38-2.381a.325.325,0,0,0-.541-.29L45.8,5.571a.324.324,0,0,1-.368.05M57.139,15.689l-1.312-2.023a.325.325,0,0,0-.6.146l-.226,2.4a.327.327,0,0,1-.24.284l-2.329.622a.325.325,0,0,0-.046.612l2.213.956a.326.326,0,0,1,.2.316l-.128,2.408a.325.325,0,0,0,.568.232l1.594-1.809a.325.325,0,0,1,.361-.088l2.25.866a.325.325,0,0,0,.4-.469l-1.229-2.075a.325.325,0,0,1,.028-.37l1.519-1.872a.325.325,0,0,0-.324-.522l-2.353.527a.326.326,0,0,1-.343-.14m5.1,14.571-.124-2.407a.325.325,0,0,0-.589-.172l-1.4,1.966a.326.326,0,0,1-.35.125l-2.328-.626a.325.325,0,0,0-.345.507l1.438,1.936a.324.324,0,0,1,.012.371l-1.315,2.021a.325.325,0,0,0,.376.485l2.285-.77a.325.325,0,0,1,.357.1l1.516,1.875a.325.325,0,0,0,.578-.208l-.026-2.411a.325.325,0,0,1,.208-.307l2.252-.862a.325.325,0,0,0-.019-.613l-2.3-.72a.325.325,0,0,1-.227-.294M59.378,45.431l1.1-2.148a.325.325,0,0,0-.425-.443l-2.192,1a.325.325,0,0,1-.365-.066l-1.7-1.706a.325.325,0,0,0-.552.267l.278,2.4a.325.325,0,0,1-.175.327l-2.149,1.093a.325.325,0,0,0,.083.608l2.364.476a.323.323,0,0,1,.256.267l.376,2.382a.325.325,0,0,0,.6.109l1.184-2.1a.323.323,0,0,1,.334-.161l2.381.379a.325.325,0,0,0,.29-.541L59.428,45.8a.325.325,0,0,1-.05-.368M49.311,57.139l2.023-1.312a.325.325,0,0,0-.146-.6l-2.4-.226a.325.325,0,0,1-.283-.24l-.623-2.329a.325.325,0,0,0-.612-.045L46.314,54.6a.325.325,0,0,1-.316.2l-2.408-.128a.325.325,0,0,0-.232.568l1.809,1.594a.325.325,0,0,1,.088.361l-.866,2.25a.325.325,0,0,0,.469.4l2.075-1.229a.325.325,0,0,1,.37.028l1.872,1.519a.325.325,0,0,0,.522-.324l-.527-2.353a.326.326,0,0,1,.14-.343m-11.9-10.692c1.467,0,2.934.016,4.4-.017a2.342,2.342,0,0,0,2.418-2.122,4.874,4.874,0,0,0-.113-1.088q-1.231-8.3-2.467-16.592c-.072-.479.046-.671.517-.781a2.383,2.383,0,0,1,.526-.041c1.671,0,3.342,0,5.012,0a1.739,1.739,0,0,0,.6-.043c.195-.076.463-.229.494-.387s-.2-.357-.331-.531c-.036-.049-.114-.069-.174-.1L45.757,23.38q-6.146-3.294-12.29-6.592a1.847,1.847,0,0,0-1.89.023q-6.969,3.745-13.952,7.466c-.382.2-.769.4-1.128.645a.545.545,0,0,0-.234.426.637.637,0,0,0,.368.371,1.987,1.987,0,0,0,.68.082c1.711.006,3.422,0,5.134.01a1.545,1.545,0,0,1,.738.163.634.634,0,0,1,.262.512c-.3,2.149-.621,4.295-.943,6.441q-.82,5.473-1.644,10.946a2.026,2.026,0,0,0,.709,1.9,3.079,3.079,0,0,0,2.16.677q4.4-.009,8.8,0,2.445,0,4.89,0" transform="translate(0 0)" fill="#6a257a"/>
  </g>
</svg>
