<svg id="Bizz_Opport" data-name="Bizz Opport" xmlns="http://www.w3.org/2000/svg" xmlns:xlink="http://www.w3.org/1999/xlink" width="89.552" height="50" viewBox="0 0 89.552 50">
  <defs>
    <clipPath id="clip-path">
      <rect id="Rectangle_4453" data-name="Rectangle 4453" width="89.552" height="50" fill="none"/>
    </clipPath>
  </defs>
  <g id="Group_64160" data-name="Group 64160" clip-path="url(#clip-path)">
    <path id="Path_92974" data-name="Path 92974" d="M77.759,1.785A23.942,23.942,0,0,0,53.082,9.011,28.568,28.568,0,0,1,52.8,41.554a24.025,24.025,0,0,0,41.568-9.328A24.679,24.679,0,0,0,77.759,1.785M80.55,34.46a7.764,7.764,0,0,1-3.233,2.733,9.938,9.938,0,0,1-2.572.783,1,1,0,0,1,.016.157l-.006,1.784a1.143,1.143,0,0,1-1.137,1.149l-2.29-.007A1.143,1.143,0,0,1,70.2,39.9l.006-1.784a1.084,1.084,0,0,1,.018-.179,9.67,9.67,0,0,1-2.343-.768,8.6,8.6,0,0,1-3.325-2.787,9.03,9.03,0,0,1-1.387-3.029,1.148,1.148,0,0,1,.934-1.41l2.383-.369a1.133,1.133,0,0,1,1.229.748,5.394,5.394,0,0,0,1.629,2.312,5.752,5.752,0,0,0,6.6.31,2.678,2.678,0,0,0,1.254-2.228,2.1,2.1,0,0,0-.539-1.493,3.932,3.932,0,0,0-1.7-.968L69,26.365q-5.154-1.634-5.139-6.422a7.126,7.126,0,0,1,1.059-3.9,6.812,6.812,0,0,1,2.972-2.538,9.128,9.128,0,0,1,2.4-.7,1.017,1.017,0,0,1-.012-.129l0-1.784a1.142,1.142,0,0,1,1.137-1.149l2.29.007a1.142,1.142,0,0,1,1.129,1.155l0,1.784a1.212,1.212,0,0,1-.023.229,9.424,9.424,0,0,1,1.863.614,8.18,8.18,0,0,1,3.1,2.446,9.533,9.533,0,0,1,1.412,2.587,1.152,1.152,0,0,1-.877,1.522l-2.442.436a1.106,1.106,0,0,1-1.229-.656,4.555,4.555,0,0,0-.616-1.088,4.474,4.474,0,0,0-1.58-1.3,5.011,5.011,0,0,0-2.1-.509,4.935,4.935,0,0,0-2,.317,3.463,3.463,0,0,0-1.427.992,2.209,2.209,0,0,0-.532,1.438,1.955,1.955,0,0,0,.733,1.527,6.253,6.253,0,0,0,2.342,1.106l4.249,1.24a9.682,9.682,0,0,1,4.608,2.553,6.18,6.18,0,0,1,1.4,4.247A7.234,7.234,0,0,1,80.55,34.46" transform="translate(-5.755 -0.078)" fill="#6a257a"/>
    <path id="Path_92975" data-name="Path 92975" d="M41.911,7.275A24.238,24.238,0,0,0,7.677,6.884H7.65l0,.023c-.164.159-.339.3-.5.464A25.181,25.181,0,0,0,18.314,49.177a24.184,24.184,0,0,0,6.135.817V50c.023,0,.049,0,.073,0l.06,0,.032,0h.031A24.214,24.214,0,0,0,42,42.629a25.3,25.3,0,0,0-.094-35.355m-1.874,3.749a21.026,21.026,0,0,1,5.164,12.3l-10.319.028a62.959,62.959,0,0,0-.661-7.64,16.153,16.153,0,0,0,1.948-.971,10.647,10.647,0,0,0,3.868-3.713M21.258,6.857c.988-1.752,2.058-2.645,3.181-2.675,2.326.109,3.922,4.076,4.5,5.8A31.294,31.294,0,0,1,29.769,13a25.748,25.748,0,0,1-10.682.026,23.161,23.161,0,0,1,2.17-6.172M8.9,11.268a10.785,10.785,0,0,0,3.8,3.534,16.248,16.248,0,0,0,1.955.95,63.118,63.118,0,0,0-.623,7.653l-10.092.027A21.042,21.042,0,0,1,8.9,11.268m0,27.461a21.133,21.133,0,0,1-4.9-11.357l10.048-.027a63.255,63.255,0,0,0,.584,6.77,11.9,11.9,0,0,0-5.735,4.615m2.935,2.845a6.382,6.382,0,0,1,3.347-3.4c.061-.032.131-.06.193-.092a28.294,28.294,0,0,0,2.37,6.783,20.573,20.573,0,0,1-5.91-3.287M15.4,11.784c-.264-.129-.527-.257-.77-.4a6.1,6.1,0,0,1-2.789-2.972,20.366,20.366,0,0,1,5.945-3.3A27.038,27.038,0,0,0,15.4,11.784m3.005,5.1a29.189,29.189,0,0,0,12.054-.028,61.279,61.279,0,0,1,.524,6.505l-13.067.035a60.574,60.574,0,0,1,.489-6.512m10.61,23.345c-.571,1.731-2.146,5.718-4.5,5.818-1.115-.042-2.178-.923-3.166-2.653a23.842,23.842,0,0,1-2.3-6.6,24.618,24.618,0,0,1,5.435-.613,25,25,0,0,1,5.433.571,32.307,32.307,0,0,1-.909,3.473m1.542-7.36a28.917,28.917,0,0,0-12.178.05c-.232-1.8-.375-3.679-.443-5.583L30.987,27.3c-.059,1.92-.207,3.791-.426,5.568m6.513-24.66a6.045,6.045,0,0,1-2.851,3.125c-.243.143-.5.274-.767.4A26.914,26.914,0,0,0,31,5.013a20.338,20.338,0,0,1,6.073,3.193M31.229,44.934a28.074,28.074,0,0,0,2.392-6.923,6.446,6.446,0,0,1,3.585,3.656,20.353,20.353,0,0,1-5.978,3.267m8.947-6.116a10.961,10.961,0,0,0-4.6-4.208c-.384-.2-.825-.353-1.239-.528a63.122,63.122,0,0,0,.552-6.794l10.273-.028a21.018,21.018,0,0,1-4.981,11.559" transform="translate(0 0)" fill="#6a257a"/>
  </g>
</svg>
