<svg id="Finantial_Advantage" data-name="Finantial Advantage" xmlns="http://www.w3.org/2000/svg" xmlns:xlink="http://www.w3.org/1999/xlink" width="54.223" height="57" viewBox="0 0 54.223 57">
  <defs>
    <clipPath id="clip-path">
      <rect id="Rectangle_4452" data-name="Rectangle 4452" width="53.412" height="57" fill="none"/>
    </clipPath>
  </defs>
  <g id="Group_64158" data-name="Group 64158" clip-path="url(#clip-path)">
    <path id="Path_92971" data-name="Path 92971" d="M30.918,30.015a4.862,4.862,0,0,0-2,.322,3.472,3.472,0,0,0-1.425,1.008,2.259,2.259,0,0,0-.531,1.461,2,2,0,0,0,.731,1.551,6.217,6.217,0,0,0,2.339,1.124l2.1.622,1.283-5.312-.018-.046a4.859,4.859,0,0,0-2.475-.731" transform="translate(-6.674 -6.646)" fill="#6a257a"/>
    <path id="Path_92972" data-name="Path 92972" d="M29.866,32.975h0a7.437,7.437,0,0,1,2.339,1.7,6.339,6.339,0,0,1,1.4,4.314,7.435,7.435,0,0,1-1.167,4.133A7.787,7.787,0,0,1,29.211,45.9a9.778,9.778,0,0,1-2.569.795,1.244,1.244,0,0,1,.015.16l-.006,1.812a1.151,1.151,0,0,1-1.135,1.167l-2.288-.007A1.153,1.153,0,0,1,22.1,48.648l.005-1.812a1.214,1.214,0,0,1,.019-.183,9.564,9.564,0,0,1-2.341-.779,8.637,8.637,0,0,1-3.321-2.832,9.263,9.263,0,0,1-1.382-3.06,1.172,1.172,0,0,1,.929-1.449l2.38-.375a1.118,1.118,0,0,1,1.221.738,5.481,5.481,0,0,0,1.634,2.37A5.21,5.21,0,0,0,24.7,42.489a5.153,5.153,0,0,0,3.14-.908,2.733,2.733,0,0,0,1.253-2.263,2.166,2.166,0,0,0-.54-1.517,3.924,3.924,0,0,0-1.695-.983L20.9,34.9q-5.149-1.661-5.133-6.524a7.341,7.341,0,0,1,1.057-3.96A6.857,6.857,0,0,1,19.8,21.832a9.052,9.052,0,0,1,2.4-.712,1.24,1.24,0,0,1-.013-.131l.006-1.812a1.151,1.151,0,0,1,1.135-1.168l2.287.008a1.152,1.152,0,0,1,1.129,1.174L26.734,21a1.253,1.253,0,0,1-.024.234,9.949,9.949,0,0,1,1.129.333l2.413-9.986a1.744,1.744,0,0,0-1.293-2.129C16.214,6.777,3.418,15.089.547,28.672-2.025,40.845,4.694,53.35,16.042,57.52,29.311,62.395,43.6,54.64,47.412,40.849a25.7,25.7,0,0,0,.119-13.318,1.937,1.937,0,0,0-2.666-1.3Z" transform="translate(0 -1.983)" fill="#6a257a"/>
    <path id="Path_92973" data-name="Path 92973" d="M51.616.885,43.06,22.7a.92.92,0,0,0,1.3,1.162L63.333,12.3a1.56,1.56,0,0,0,.523-2.08A24.466,24.466,0,0,0,53.519.15a1.369,1.369,0,0,0-1.9.735" transform="translate(-10.641 0)" fill="#6a257a"/>
  </g>
</svg>
