<svg xmlns="http://www.w3.org/2000/svg" xmlns:xlink="http://www.w3.org/1999/xlink" width="88.804" height="43.9" viewBox="0 0 88.804 43.9">
  <defs>
    <clipPath id="clip-path">
      <rect id="Rectangle_5096" data-name="Rectangle 5096" width="88.804" height="43.9" fill="none"/>
    </clipPath>
  </defs>
  <g id="Group_66506" data-name="Group 66506" transform="translate(0 0)">
    <g id="Group_66505" data-name="Group 66505" transform="translate(0 0)" clip-path="url(#clip-path)">
      <path id="Path_94155" data-name="Path 94155" d="M49.327,20.948a12.039,12.039,0,0,1,.558-4.289,7.871,7.871,0,0,1,4.562-4.57,10.6,10.6,0,0,1,8.358.285c3.846,1.866,6.126,5.363,8.134,8.784l.124.21c1.614,2.753,3.139,5.354,5.4,6.728.333.2.723.4,1.136.617a9.649,9.649,0,0,1,4.494,3.792c1.85,3.4.25,7.181-1.865,9.582l-.017.02A1.078,1.078,0,0,0,81.02,43.9H85a3.785,3.785,0,0,0,3.777-4.174A44.658,44.658,0,0,0,45.13,0c-.681-.012-.981.491-.7,1.113a11.276,11.276,0,0,1,.925,5.561,10.715,10.715,0,0,1-4.512,8.1,18.914,18.914,0,0,1-2.8,1.5,7.814,7.814,0,0,0-2.491,1.488c-1.015,1.153-.632,3.476.271,5.176a27.451,27.451,0,0,0,2.31,3.421,32.955,32.955,0,0,1,2.735,4.072,7.105,7.105,0,0,1,1.014,3.941c-.248,3.393-3.442,5.784-7.945,5.95-.349.013-.7.02-1.044.02-7.549,0-14.55-3-21.01-6.273l-.685-.348A31.967,31.967,0,0,0,4.188,30.8a11.446,11.446,0,0,0-2.144-.287,44.489,44.489,0,0,0-2.02,9.2A3.788,3.788,0,0,0,3.8,43.9H45.567a3.791,3.791,0,0,0,3.791-3.8Z" transform="translate(0 0.001)" fill="#6a257a"/>
      <path id="Path_94156" data-name="Path 94156" d="M4.5,24.825a36.791,36.791,0,0,1,8.352,3.406l.674.342c6.049,3.064,12.56,5.864,19.168,5.621a4.573,4.573,0,0,0,2.237-.58,4.667,4.667,0,0,0-.284-.6,27.866,27.866,0,0,0-2.27-3.344,32.3,32.3,0,0,1-2.8-4.19c-1.722-3.245-2.621-8.294.516-11.852a12.455,12.455,0,0,1,4.448-2.947A13.943,13.943,0,0,0,36.49,9.668a4.916,4.916,0,0,0,1.948-3.7A4.92,4.92,0,0,0,37.114,2,5.527,5.527,0,0,0,35.5.951,2.781,2.781,0,0,0,33.8.8,44.728,44.728,0,0,0,3.35,24.61c.382.063.762.125,1.147.216" transform="translate(1.028 0.226)" fill="#6a257a"/>
      <path id="Path_94157" data-name="Path 94157" d="M61.318,35.643s1.07-1.021,1.512-1.522c1.017-1.154,1.367-2.381,1.108-2.857a5.629,5.629,0,0,0-2.022-1.371c-.481-.248-.978-.506-1.481-.81-3.541-2.147-5.61-5.677-7.436-8.791l-.122-.208c-1.487-2.535-3.123-5.1-5.337-6.315a5.257,5.257,0,0,0-3.7-.325,2.09,2.09,0,0,0-1.377,1.177,7.436,7.436,0,0,0-.2,2.253L42.3,36.051a3.79,3.79,0,0,0,3.791,3.785h9.962a3.787,3.787,0,0,0,2.916-1.367c1.017-1.223,2.352-2.825,2.352-2.825" transform="translate(12.968 4.064)" fill="#6a257a"/>
    </g>
  </g>
</svg>
