<svg id="Lifestyle" xmlns="http://www.w3.org/2000/svg" xmlns:xlink="http://www.w3.org/1999/xlink" width="66.305" height="74.819" viewBox="0 0 66.305 74.819">
  <defs>
    <clipPath id="clip-path">
      <rect id="Rectangle_4457" data-name="Rectangle 4457" width="66.305" height="74.819" fill="none"/>
    </clipPath>
  </defs>
  <g id="Group_64165" data-name="Group 64165" clip-path="url(#clip-path)">
    <path id="Path_92981" data-name="Path 92981" d="M41.632,41.6c0,6.289-3.9,13.759-8.714,13.759S24.2,47.893,24.2,41.6s3.9-9.016,8.715-9.016,8.714,2.727,8.714,9.016m-1.8-22.093a1.292,1.292,0,0,0,1.294,1.29h3.823v3.806a1.293,1.293,0,0,0,1.3,1.29h1.6a1.292,1.292,0,0,0,1.294-1.29V20.8h3.823a1.292,1.292,0,0,0,1.294-1.29v-1.6a1.292,1.292,0,0,0-1.294-1.29H49.144V12.819a1.292,1.292,0,0,0-1.294-1.29h-1.6a1.293,1.293,0,0,0-1.3,1.29v3.806H41.129a1.292,1.292,0,0,0-1.294,1.29ZM64.872,32.984l.186-.076-.594-2.188a8.226,8.226,0,0,1-.171-3.957l1.78-7.551c.277-1.177-1.494-1.452-2.076-.322-1.1,2.146-2.256,4.41-3.195,6.31l-.924-1.4c-.279-.474-1.153-.168-1.166.407L58.5,31.9l.034-.034a7.193,7.193,0,0,0,1,3.283l.8-.321-.693.328c2.522,6.49-1.87,13.22-7.022,17.017a32.4,32.4,0,0,1-16.976,5.656c-.786-.035-1.593-.059-2.457-.059-.987,0-1.907.024-2.8.059a37.25,37.25,0,0,1-7.239-1.243C13.923,54.306,3.125,45.54,6.673,35.153l-.693-.328.8.321a7.193,7.193,0,0,0,1-3.283l.034.034-.214-7.69c-.014-.575-.887-.881-1.166-.407L5.5,25.2c-.939-1.9-2.09-4.164-3.195-6.31-.581-1.13-2.353-.855-2.076.322l1.78,7.551a8.226,8.226,0,0,1-.171,3.957l-.594,2.188.186.076c-3.633,8.883-.013,19.16,6.93,25.4A41.511,41.511,0,0,0,19.34,65.606l1.751,7.475a1.741,1.741,0,0,0,1.744,1.738H42.323a1.742,1.742,0,0,0,1.744-1.738l2.352-7.257a40.876,40.876,0,0,0,11.522-7.444c6.944-6.236,10.562-16.51,6.93-25.4M32.553,12.655a1.127,1.127,0,0,0,1.541,0c2.08-1.946,7.534-7.5,5.751-10.7C38.038-1.29,35,.3,33.818,1.1a.875.875,0,0,1-.981,0c-1.182-.8-4.222-2.393-6.028.851-1.782,3.2,3.667,8.755,5.745,10.7M14.205,21.566l1.29.041a7.39,7.39,0,0,0,.412,1.108,6.137,6.137,0,0,0,2.205,2.568,6.537,6.537,0,0,0,3.458,1.01,7.218,7.218,0,0,0,1.936-.2,6.308,6.308,0,0,0,1.156-.4.634.634,0,0,0,.271-.9l-.61-1.018a.652.652,0,0,0-.847-.239,3.753,3.753,0,0,1-1.83.342,3.645,3.645,0,0,1-2.124-.629A3.521,3.521,0,0,1,18.33,21.7l3.69.117a.641.641,0,0,0,.661-.619l.022-.7a.64.64,0,0,0-.621-.658L17.9,19.7c-.011-.2-.017-.4-.013-.6s.027-.394.05-.584l4.18.131a.641.641,0,0,0,.661-.619l.022-.7a.639.639,0,0,0-.621-.658l-3.7-.117a3.549,3.549,0,0,1,1.277-1.485,3.742,3.742,0,0,1,2.184-.522,4.191,4.191,0,0,1,1.221.223,3.541,3.541,0,0,1,.565.248.655.655,0,0,0,.863-.183l.686-.992a.634.634,0,0,0-.214-.92,6.313,6.313,0,0,0-1.105-.456,7.33,7.33,0,0,0-1.94-.316,6.65,6.65,0,0,0-3.515.773,6.023,6.023,0,0,0-2.361,2.4,7.086,7.086,0,0,0-.5,1.14l-1.271-.04a.64.64,0,0,0-.661.619l-.022.7a.638.638,0,0,0,.62.658l.9.028c-.021.191-.038.385-.049.584s0,.406.014.6l-.908-.028a.64.64,0,0,0-.66.619l-.023.7a.64.64,0,0,0,.621.658" transform="translate(0 0)" fill="#6a257a"/>
  </g>
</svg>
