<svg id="Peace_of_Mind" data-name="Peace of Mind" xmlns="http://www.w3.org/2000/svg" xmlns:xlink="http://www.w3.org/1999/xlink" width="56.119" height="57" viewBox="0 0 56.119 57">
  <defs>
    <clipPath id="clip-path">
      <rect id="Rectangle_4449" data-name="Rectangle 4449" width="56.118" height="56.834" fill="none"/>
    </clipPath>
  </defs>
  <g id="Group_64153" data-name="Group 64153" clip-path="url(#clip-path)">
    <path id="Path_92952" data-name="Path 92952" d="M3.71,22.734H19.042a3.706,3.706,0,0,0,3.707-3.7V3.7A3.706,3.706,0,0,0,19.042,0H3.71A3.706,3.706,0,0,0,0,3.7V19.029a3.706,3.706,0,0,0,3.706,3.7" transform="translate(0 0)" fill="#6a257a"/>
    <path id="Path_92953" data-name="Path 92953" d="M53.821,0H38.489a3.706,3.706,0,0,0-3.707,3.7V19.029a3.706,3.706,0,0,0,3.707,3.7H53.821a3.706,3.706,0,0,0,3.707-3.7V3.7A3.706,3.706,0,0,0,53.821,0" transform="translate(-1.409 0)" fill="#6a257a"/>
    <path id="Path_92954" data-name="Path 92954" d="M53.821,35.558H38.489a3.706,3.706,0,0,0-3.707,3.7V54.587a3.706,3.706,0,0,0,3.707,3.7H53.821a3.706,3.706,0,0,0,3.707-3.7V39.263a3.706,3.706,0,0,0-3.707-3.7" transform="translate(-1.409 -1.458)" fill="#6a257a"/>
    <path id="Path_92955" data-name="Path 92955" d="M21.035,49.8h-6.1a2.269,2.269,0,0,1-2.269-2.269V41.872H16a1.512,1.512,0,0,0,1.177-2.461L9.934,30.438a1.513,1.513,0,0,0-2.355,0L.338,39.411a1.512,1.512,0,0,0,1.177,2.461H4.533v5.664a10.4,10.4,0,0,0,10.4,10.4h5.979A2.89,2.89,0,0,0,23.8,55.042V52.571A2.766,2.766,0,0,0,21.035,49.8" transform="translate(0 -1.225)" fill="#6a257a"/>
  </g>
</svg>
