<svg id="Visa" xmlns="http://www.w3.org/2000/svg" xmlns:xlink="http://www.w3.org/1999/xlink" width="67.453" height="66" viewBox="0 0 67.453 66">
  <defs>
    <clipPath id="clip-path">
      <rect id="Rectangle_4433" data-name="Rectangle 4433" width="67.453" height="66" fill="none"/>
    </clipPath>
  </defs>
  <g id="Group_64070" data-name="Group 64070" clip-path="url(#clip-path)">
    <path id="Path_92825" data-name="Path 92825" d="M39.159,39.879a5.326,5.326,0,0,0,2.593,7.029,5.231,5.231,0,0,0,6.96-2.618,5.326,5.326,0,0,0-2.593-7.029,5.231,5.231,0,0,0-6.96,2.618M57.888,1.5A16.3,16.3,0,0,0,36.2,9.658a16.594,16.594,0,0,0,8.079,21.9A16.3,16.3,0,0,0,65.967,23.4,16.593,16.593,0,0,0,57.888,1.5M61.75,7.363s-6.575,11.484-8.416,15.631c-.782,1.761-2,3.069-3.479,3.177l-.088.007-.747-.028-.088.006c-1.478.108-2.8-.919-3.529-2.665l-4.978-10.8c-.091-.218.022-.5.206-.512l3.725-.272c1.822-.133,3.455,1.417,4,3.8l1.392,4.131,7.2-10.259a6.5,6.5,0,0,1,4.577-2.7c.184-.014.308.25.225.481M14.54,34.225a6.761,6.761,0,0,1,.162-1.91c.152-.57.391-.9.708-1,.671-.146,1.418.855,1.71,1.3a8.94,8.94,0,0,1,.46.792,7.656,7.656,0,0,1-3.041.818m3.523.218a17.8,17.8,0,0,1,.63,1.8l-3.719,1a17.492,17.492,0,0,1-.342-1.878,8.672,8.672,0,0,0,3.431-.923m.475-1.674a7.791,7.791,0,0,0-1.2-1.714,5.97,5.97,0,0,1,1.966.442,1.784,1.784,0,0,1-.582,1.1c-.058.059-.123.115-.188.172M15.809,39.9c-.2-.491-.379-1.012-.539-1.545l3.714-1c.125.548.221,1.088.29,1.607a8.586,8.586,0,0,0-3.464.938m6.007,1.046a6.055,6.055,0,0,1-1.461,1.377,8.194,8.194,0,0,0,.17-2.14,1.878,1.878,0,0,1,1.291.762m-2.768-7.115a4.673,4.673,0,0,0,.483-.422,3.149,3.149,0,0,0,.828-1.343,6.087,6.087,0,0,1,2.379,3.085l-2.937.791a18.262,18.262,0,0,0-.753-2.11m1.044,3.225,2.924-.788a6.148,6.148,0,0,1-.565,3.646,3.2,3.2,0,0,0-1.622-.84c-.124-.027-.261-.037-.392-.056a18.349,18.349,0,0,0-.345-1.963m-7.956-3.589a6.056,6.056,0,0,1,1.45-1.383,7.9,7.9,0,0,0-.187,2.067c-.085-.016-.169-.033-.249-.055a1.777,1.777,0,0,1-1.014-.629m1.732,4.073L11,38.315A6.149,6.149,0,0,1,11.51,34.5a3.142,3.142,0,0,0,1.344.71,4.694,4.694,0,0,0,.627.121,18.391,18.391,0,0,0,.388,2.211m21.284,13.7a3.594,3.594,0,0,1-3.416.215A3.681,3.681,0,0,1,29.944,46.6a3.625,3.625,0,0,1,3.467-2.137L27.843,22.787a3.821,3.821,0,0,0-4.661-2.768L1.074,25.811A1.449,1.449,0,0,0,.046,27.576L9.637,64.915a1.433,1.433,0,0,0,1.748,1.038l22.108-5.792a3.865,3.865,0,0,0,2.741-4.707ZM18.845,44.26l-.009,0-.017,0-.021.007v0a7.168,7.168,0,0,1-1.808.235A7.32,7.32,0,0,1,10.723,33.53c.033-.058.073-.112.108-.169l0-.006.007,0a7.214,7.214,0,0,1,13.148,1.957,7.325,7.325,0,0,1-.73,5.548,7.2,7.2,0,0,1-4.4,3.4l-.009,0Zm5.229,9.7a2.493,2.493,0,0,1-3.317,1.248,2.538,2.538,0,0,1-1.235-3.35,2.493,2.493,0,0,1,3.317-1.248,2.538,2.538,0,0,1,1.235,3.35m-4.7-12.8c-.035.533-.189,1.78-.852,1.987-.321.072-.688-.1-1.1-.51a6.9,6.9,0,0,1-1.141-1.691,7.305,7.305,0,0,1,1.5-.585,7.392,7.392,0,0,1,1.59-.251,9.481,9.481,0,0,1,0,1.051m-4.546-.638a3.524,3.524,0,0,0-1.293,1.74,6.118,6.118,0,0,1-2.234-2.84l2.86-.77a18.283,18.283,0,0,0,.667,1.87m.5,1.065a8.178,8.178,0,0,0,1.176,1.738,6.03,6.03,0,0,1-1.926-.481,1.881,1.881,0,0,1,.7-1.217c.015-.014.033-.027.048-.041" transform="translate(0 0)" fill="#6a257a"/>
  </g>
</svg>
